<mxfile host="app.diagrams.net" agent="Mozilla/5.0 (Windows NT 10.0; Win64; x64) AppleWebKit/537.36 (KHTML, like Gecko) Chrome/131.0.0.0 Safari/537.36" version="26.0.2">
  <diagram name="第 1 页" id="_sOqoY7cL4WBlMvpSNwM">
    <mxGraphModel dx="2269" dy="1200" grid="1" gridSize="10" guides="1" tooltips="1" connect="1" arrows="1" fold="1" page="1" pageScale="1" pageWidth="2339" pageHeight="3300" math="0" shadow="0">
      <root>
        <mxCell id="0" />
        <mxCell id="1" parent="0" />
        <mxCell id="6FkhRscBWC2Em_Lyi6Ba-1" value="消费者个性化定制" style="swimlane;childLayout=stackLayout;resizeParent=1;resizeParentMax=0;startSize=20;html=1;" vertex="1" parent="1">
          <mxGeometry x="380" y="114" width="1070" height="1080" as="geometry" />
        </mxCell>
        <mxCell id="6FkhRscBWC2Em_Lyi6Ba-2" value="消费者" style="swimlane;startSize=20;html=1;" vertex="1" parent="6FkhRscBWC2Em_Lyi6Ba-1">
          <mxGeometry y="20" width="540" height="1060" as="geometry" />
        </mxCell>
        <mxCell id="6FkhRscBWC2Em_Lyi6Ba-5" value="" style="ellipse;html=1;shape=startState;fillColor=#000000;strokeColor=#ff0000;" vertex="1" parent="6FkhRscBWC2Em_Lyi6Ba-2">
          <mxGeometry x="180" y="40" width="30" height="30" as="geometry" />
        </mxCell>
        <mxCell id="6FkhRscBWC2Em_Lyi6Ba-6" value="" style="edgeStyle=orthogonalEdgeStyle;html=1;verticalAlign=bottom;endArrow=open;endSize=8;strokeColor=#ff0000;rounded=0;entryX=0.5;entryY=0;entryDx=0;entryDy=0;" edge="1" source="6FkhRscBWC2Em_Lyi6Ba-5" parent="6FkhRscBWC2Em_Lyi6Ba-2" target="6FkhRscBWC2Em_Lyi6Ba-7">
          <mxGeometry relative="1" as="geometry">
            <mxPoint x="195" y="130" as="targetPoint" />
          </mxGeometry>
        </mxCell>
        <mxCell id="6FkhRscBWC2Em_Lyi6Ba-7" value="打开信息收集页面" style="rounded=1;whiteSpace=wrap;html=1;arcSize=40;fontColor=#000000;fillColor=#ffffc0;strokeColor=#ff0000;" vertex="1" parent="6FkhRscBWC2Em_Lyi6Ba-2">
          <mxGeometry x="135" y="110" width="120" height="40" as="geometry" />
        </mxCell>
        <mxCell id="6FkhRscBWC2Em_Lyi6Ba-8" value="" style="edgeStyle=orthogonalEdgeStyle;html=1;verticalAlign=bottom;endArrow=open;endSize=8;strokeColor=#ff0000;rounded=0;entryX=0.5;entryY=0;entryDx=0;entryDy=0;" edge="1" source="6FkhRscBWC2Em_Lyi6Ba-7" parent="6FkhRscBWC2Em_Lyi6Ba-2" target="6FkhRscBWC2Em_Lyi6Ba-11">
          <mxGeometry relative="1" as="geometry">
            <mxPoint x="195" y="200" as="targetPoint" />
          </mxGeometry>
        </mxCell>
        <mxCell id="6FkhRscBWC2Em_Lyi6Ba-11" value="使用AI辅助设计" style="rhombus;whiteSpace=wrap;html=1;fontColor=#000000;fillColor=#ffffc0;strokeColor=#ff0000;" vertex="1" parent="6FkhRscBWC2Em_Lyi6Ba-2">
          <mxGeometry x="145" y="200" width="100" height="60" as="geometry" />
        </mxCell>
        <mxCell id="6FkhRscBWC2Em_Lyi6Ba-12" value="no" style="edgeStyle=orthogonalEdgeStyle;html=1;align=left;verticalAlign=bottom;endArrow=open;endSize=8;strokeColor=#ff0000;rounded=0;entryX=0;entryY=0.5;entryDx=0;entryDy=0;" edge="1" source="6FkhRscBWC2Em_Lyi6Ba-11" parent="6FkhRscBWC2Em_Lyi6Ba-2" target="6FkhRscBWC2Em_Lyi6Ba-14">
          <mxGeometry x="-1" relative="1" as="geometry">
            <mxPoint x="295" y="230" as="targetPoint" />
          </mxGeometry>
        </mxCell>
        <mxCell id="6FkhRscBWC2Em_Lyi6Ba-13" value="yes" style="edgeStyle=orthogonalEdgeStyle;html=1;align=left;verticalAlign=top;endArrow=open;endSize=8;strokeColor=#ff0000;rounded=0;entryX=0.5;entryY=0;entryDx=0;entryDy=0;" edge="1" source="6FkhRscBWC2Em_Lyi6Ba-11" parent="6FkhRscBWC2Em_Lyi6Ba-2" target="6FkhRscBWC2Em_Lyi6Ba-17">
          <mxGeometry x="-1" relative="1" as="geometry">
            <mxPoint x="195" y="300" as="targetPoint" />
          </mxGeometry>
        </mxCell>
        <mxCell id="6FkhRscBWC2Em_Lyi6Ba-14" value="手动输入对该个性化产品的描述，可上传图片" style="rounded=1;whiteSpace=wrap;html=1;arcSize=40;fontColor=#000000;fillColor=#ffffc0;strokeColor=#ff0000;" vertex="1" parent="6FkhRscBWC2Em_Lyi6Ba-2">
          <mxGeometry x="295" y="205" width="120" height="50" as="geometry" />
        </mxCell>
        <mxCell id="6FkhRscBWC2Em_Lyi6Ba-15" value="" style="edgeStyle=orthogonalEdgeStyle;html=1;verticalAlign=bottom;endArrow=open;endSize=8;strokeColor=#ff0000;rounded=0;entryX=0.903;entryY=0.379;entryDx=0;entryDy=0;entryPerimeter=0;" edge="1" source="6FkhRscBWC2Em_Lyi6Ba-14" parent="6FkhRscBWC2Em_Lyi6Ba-2" target="6FkhRscBWC2Em_Lyi6Ba-22">
          <mxGeometry relative="1" as="geometry">
            <mxPoint x="355" y="480" as="targetPoint" />
          </mxGeometry>
        </mxCell>
        <mxCell id="6FkhRscBWC2Em_Lyi6Ba-17" value="AI根据预输入的问题逐步询问消费者" style="rounded=1;whiteSpace=wrap;html=1;arcSize=40;fontColor=#000000;fillColor=#ffffc0;strokeColor=#ff0000;" vertex="1" parent="6FkhRscBWC2Em_Lyi6Ba-2">
          <mxGeometry x="135" y="300" width="120" height="40" as="geometry" />
        </mxCell>
        <mxCell id="6FkhRscBWC2Em_Lyi6Ba-18" value="" style="edgeStyle=orthogonalEdgeStyle;html=1;verticalAlign=bottom;endArrow=open;endSize=8;strokeColor=#ff0000;rounded=0;" edge="1" source="6FkhRscBWC2Em_Lyi6Ba-17" parent="6FkhRscBWC2Em_Lyi6Ba-2" target="6FkhRscBWC2Em_Lyi6Ba-20">
          <mxGeometry relative="1" as="geometry">
            <mxPoint x="195" y="380" as="targetPoint" />
          </mxGeometry>
        </mxCell>
        <mxCell id="6FkhRscBWC2Em_Lyi6Ba-20" value="根据回答描述AI生成图片，也可上传本地图片" style="rounded=1;whiteSpace=wrap;html=1;arcSize=40;fontColor=#000000;fillColor=#ffffc0;strokeColor=#ff0000;" vertex="1" parent="6FkhRscBWC2Em_Lyi6Ba-2">
          <mxGeometry x="130" y="380" width="130" height="40" as="geometry" />
        </mxCell>
        <mxCell id="6FkhRscBWC2Em_Lyi6Ba-21" value="" style="edgeStyle=orthogonalEdgeStyle;html=1;verticalAlign=bottom;endArrow=open;endSize=8;strokeColor=#ff0000;rounded=0;entryX=0.101;entryY=0.379;entryDx=0;entryDy=0;entryPerimeter=0;" edge="1" source="6FkhRscBWC2Em_Lyi6Ba-20" parent="6FkhRscBWC2Em_Lyi6Ba-2" target="6FkhRscBWC2Em_Lyi6Ba-22">
          <mxGeometry relative="1" as="geometry">
            <mxPoint x="195" y="470" as="targetPoint" />
          </mxGeometry>
        </mxCell>
        <mxCell id="6FkhRscBWC2Em_Lyi6Ba-22" value="" style="shape=line;html=1;strokeWidth=6;strokeColor=#ff0000;" vertex="1" parent="6FkhRscBWC2Em_Lyi6Ba-2">
          <mxGeometry x="175" y="470" width="200" height="10" as="geometry" />
        </mxCell>
        <mxCell id="6FkhRscBWC2Em_Lyi6Ba-23" value="" style="edgeStyle=orthogonalEdgeStyle;html=1;verticalAlign=bottom;endArrow=open;endSize=8;strokeColor=#ff0000;rounded=0;entryX=0.5;entryY=0;entryDx=0;entryDy=0;" edge="1" source="6FkhRscBWC2Em_Lyi6Ba-22" parent="6FkhRscBWC2Em_Lyi6Ba-2" target="6FkhRscBWC2Em_Lyi6Ba-26">
          <mxGeometry relative="1" as="geometry">
            <mxPoint x="275" y="550" as="targetPoint" />
          </mxGeometry>
        </mxCell>
        <mxCell id="6FkhRscBWC2Em_Lyi6Ba-26" value="提交设计方案" style="rounded=1;whiteSpace=wrap;html=1;arcSize=40;fontColor=#000000;fillColor=#ffffc0;strokeColor=#ff0000;" vertex="1" parent="6FkhRscBWC2Em_Lyi6Ba-2">
          <mxGeometry x="225" y="550" width="100" height="30" as="geometry" />
        </mxCell>
        <mxCell id="6FkhRscBWC2Em_Lyi6Ba-43" value="消费者获得奖励（如：免费获得该产品一件）" style="rounded=1;whiteSpace=wrap;html=1;arcSize=40;fontColor=#000000;fillColor=#ffffc0;strokeColor=#ff0000;" vertex="1" parent="6FkhRscBWC2Em_Lyi6Ba-2">
          <mxGeometry x="205" y="826" width="130" height="44" as="geometry" />
        </mxCell>
        <mxCell id="6FkhRscBWC2Em_Lyi6Ba-44" value="" style="edgeStyle=orthogonalEdgeStyle;html=1;verticalAlign=bottom;endArrow=open;endSize=8;strokeColor=#ff0000;rounded=0;entryX=0.497;entryY=0.094;entryDx=0;entryDy=0;entryPerimeter=0;" edge="1" source="6FkhRscBWC2Em_Lyi6Ba-43" parent="6FkhRscBWC2Em_Lyi6Ba-2" target="6FkhRscBWC2Em_Lyi6Ba-45">
          <mxGeometry relative="1" as="geometry">
            <mxPoint x="270" y="926" as="targetPoint" />
          </mxGeometry>
        </mxCell>
        <mxCell id="6FkhRscBWC2Em_Lyi6Ba-45" value="" style="ellipse;html=1;shape=endState;fillColor=#000000;strokeColor=#ff0000;" vertex="1" parent="6FkhRscBWC2Em_Lyi6Ba-2">
          <mxGeometry x="255" y="926" width="30" height="30" as="geometry" />
        </mxCell>
        <mxCell id="6FkhRscBWC2Em_Lyi6Ba-3" value="智能家居单品厂商" style="swimlane;startSize=20;html=1;" vertex="1" parent="6FkhRscBWC2Em_Lyi6Ba-1">
          <mxGeometry x="540" y="20" width="530" height="1060" as="geometry" />
        </mxCell>
        <mxCell id="6FkhRscBWC2Em_Lyi6Ba-29" value="查看消费者提交的设计方案" style="rounded=1;whiteSpace=wrap;html=1;arcSize=40;fontColor=#000000;fillColor=#ffffc0;strokeColor=#ff0000;" vertex="1" parent="6FkhRscBWC2Em_Lyi6Ba-3">
          <mxGeometry x="200" y="546" width="120" height="40" as="geometry" />
        </mxCell>
        <mxCell id="6FkhRscBWC2Em_Lyi6Ba-30" value="" style="edgeStyle=orthogonalEdgeStyle;html=1;verticalAlign=bottom;endArrow=open;endSize=8;strokeColor=#ff0000;rounded=0;entryX=0.5;entryY=0;entryDx=0;entryDy=0;" edge="1" source="6FkhRscBWC2Em_Lyi6Ba-29" parent="6FkhRscBWC2Em_Lyi6Ba-3" target="6FkhRscBWC2Em_Lyi6Ba-31">
          <mxGeometry relative="1" as="geometry">
            <mxPoint x="260" y="650" as="targetPoint" />
          </mxGeometry>
        </mxCell>
        <mxCell id="6FkhRscBWC2Em_Lyi6Ba-31" value="采纳" style="rhombus;whiteSpace=wrap;html=1;fontColor=#000000;fillColor=#ffffc0;strokeColor=#ff0000;" vertex="1" parent="6FkhRscBWC2Em_Lyi6Ba-3">
          <mxGeometry x="220" y="656" width="80" height="40" as="geometry" />
        </mxCell>
        <mxCell id="6FkhRscBWC2Em_Lyi6Ba-32" value="no" style="edgeStyle=orthogonalEdgeStyle;html=1;align=left;verticalAlign=bottom;endArrow=open;endSize=8;strokeColor=#ff0000;rounded=0;entryX=0;entryY=0.5;entryDx=0;entryDy=0;" edge="1" source="6FkhRscBWC2Em_Lyi6Ba-31" parent="6FkhRscBWC2Em_Lyi6Ba-3" target="6FkhRscBWC2Em_Lyi6Ba-34">
          <mxGeometry x="-1" relative="1" as="geometry">
            <mxPoint x="400" y="676" as="targetPoint" />
          </mxGeometry>
        </mxCell>
        <mxCell id="6FkhRscBWC2Em_Lyi6Ba-33" value="yes" style="edgeStyle=orthogonalEdgeStyle;html=1;align=left;verticalAlign=top;endArrow=open;endSize=8;strokeColor=#ff0000;rounded=0;entryX=0.5;entryY=0;entryDx=0;entryDy=0;" edge="1" source="6FkhRscBWC2Em_Lyi6Ba-31" parent="6FkhRscBWC2Em_Lyi6Ba-3" target="6FkhRscBWC2Em_Lyi6Ba-35">
          <mxGeometry x="-1" relative="1" as="geometry">
            <mxPoint x="260" y="756" as="targetPoint" />
          </mxGeometry>
        </mxCell>
        <mxCell id="6FkhRscBWC2Em_Lyi6Ba-34" value="" style="ellipse;html=1;shape=endState;fillColor=#000000;strokeColor=#ff0000;" vertex="1" parent="6FkhRscBWC2Em_Lyi6Ba-3">
          <mxGeometry x="400" y="661" width="30" height="30" as="geometry" />
        </mxCell>
        <mxCell id="6FkhRscBWC2Em_Lyi6Ba-35" value="尝试开发该产品" style="rounded=1;whiteSpace=wrap;html=1;arcSize=40;fontColor=#000000;fillColor=#ffffc0;strokeColor=#ff0000;" vertex="1" parent="6FkhRscBWC2Em_Lyi6Ba-3">
          <mxGeometry x="205" y="756" width="110" height="24" as="geometry" />
        </mxCell>
        <mxCell id="6FkhRscBWC2Em_Lyi6Ba-36" value="" style="edgeStyle=orthogonalEdgeStyle;html=1;verticalAlign=bottom;endArrow=open;endSize=8;strokeColor=#ff0000;rounded=0;entryX=0.5;entryY=0;entryDx=0;entryDy=0;" edge="1" source="6FkhRscBWC2Em_Lyi6Ba-35" parent="6FkhRscBWC2Em_Lyi6Ba-3" target="6FkhRscBWC2Em_Lyi6Ba-39">
          <mxGeometry relative="1" as="geometry">
            <mxPoint x="260" y="826" as="targetPoint" />
          </mxGeometry>
        </mxCell>
        <mxCell id="6FkhRscBWC2Em_Lyi6Ba-39" value="成功开发" style="rhombus;whiteSpace=wrap;html=1;fontColor=#000000;fillColor=#ffffc0;strokeColor=#ff0000;" vertex="1" parent="6FkhRscBWC2Em_Lyi6Ba-3">
          <mxGeometry x="220" y="826" width="80" height="40" as="geometry" />
        </mxCell>
        <mxCell id="6FkhRscBWC2Em_Lyi6Ba-40" value="no" style="edgeStyle=orthogonalEdgeStyle;html=1;align=left;verticalAlign=bottom;endArrow=open;endSize=8;strokeColor=#ff0000;rounded=0;entryX=0.5;entryY=0;entryDx=0;entryDy=0;" edge="1" source="6FkhRscBWC2Em_Lyi6Ba-39" parent="6FkhRscBWC2Em_Lyi6Ba-3" target="6FkhRscBWC2Em_Lyi6Ba-42">
          <mxGeometry x="-1" relative="1" as="geometry">
            <mxPoint x="260" y="896" as="targetPoint" />
          </mxGeometry>
        </mxCell>
        <mxCell id="6FkhRscBWC2Em_Lyi6Ba-42" value="" style="ellipse;html=1;shape=endState;fillColor=#000000;strokeColor=#ff0000;" vertex="1" parent="6FkhRscBWC2Em_Lyi6Ba-3">
          <mxGeometry x="245" y="896" width="30" height="30" as="geometry" />
        </mxCell>
        <mxCell id="6FkhRscBWC2Em_Lyi6Ba-27" value="" style="edgeStyle=orthogonalEdgeStyle;html=1;verticalAlign=bottom;endArrow=open;endSize=8;strokeColor=#ff0000;rounded=0;entryX=0;entryY=0.5;entryDx=0;entryDy=0;" edge="1" source="6FkhRscBWC2Em_Lyi6Ba-26" parent="6FkhRscBWC2Em_Lyi6Ba-1" target="6FkhRscBWC2Em_Lyi6Ba-29">
          <mxGeometry relative="1" as="geometry">
            <mxPoint x="700" y="585" as="targetPoint" />
          </mxGeometry>
        </mxCell>
        <mxCell id="6FkhRscBWC2Em_Lyi6Ba-41" value="yes" style="edgeStyle=orthogonalEdgeStyle;html=1;align=left;verticalAlign=top;endArrow=open;endSize=8;strokeColor=#ff0000;rounded=0;" edge="1" source="6FkhRscBWC2Em_Lyi6Ba-39" parent="6FkhRscBWC2Em_Lyi6Ba-1" target="6FkhRscBWC2Em_Lyi6Ba-43">
          <mxGeometry x="-1" relative="1" as="geometry">
            <mxPoint x="330" y="866" as="targetPoint" />
          </mxGeometry>
        </mxCell>
      </root>
    </mxGraphModel>
  </diagram>
</mxfile>
